<?xml version="1.0" encoding="UTF-8" standalone="no"?>
<!DOCTYPE svg PUBLIC "-//W3C//DTD SVG 1.1//EN"
 "http://www.w3.org/Graphics/SVG/1.1/DTD/svg11.dtd">
<!-- Generated by graphviz version 14.1.4 (20260321.0153)
 -->
<!-- Title: G Pages: 1 -->
<svg width="254pt" height="44pt"
 viewBox="0.00 0.00 254.00 44.00" xmlns="http://www.w3.org/2000/svg" xmlns:xlink="http://www.w3.org/1999/xlink">
<g id="graph0" class="graph" transform="scale(1 1) rotate(0) translate(4 40)">
<title>G</title>
<polygon fill="white" stroke="none" points="-4,4 -4,-40 250.25,-40 250.25,4 -4,4"/>
<!-- Org -->
<g id="node1" class="node">
<title>Org</title>
<path fill="none" stroke="black" d="M42,-36C42,-36 12,-36 12,-36 6,-36 0,-30 0,-24 0,-24 0,-12 0,-12 0,-6 6,0 12,0 12,0 42,0 42,0 48,0 54,-6 54,-12 54,-12 54,-24 54,-24 54,-30 48,-36 42,-36"/>
<text xml:space="preserve" text-anchor="middle" x="27" y="-12.95" font-family="Times,serif" font-size="14.00">Org</text>
</g>
<!-- Babel -->
<g id="node2" class="node">
<title>Babel</title>
<path fill="none" stroke="black" d="M132,-36C132,-36 102,-36 102,-36 96,-36 90,-30 90,-24 90,-24 90,-12 90,-12 90,-6 96,0 102,0 102,0 132,0 132,0 138,0 144,-6 144,-12 144,-12 144,-24 144,-24 144,-30 138,-36 132,-36"/>
<text xml:space="preserve" text-anchor="middle" x="117" y="-12.95" font-family="Times,serif" font-size="14.00">Babel</text>
</g>
<!-- Org&#45;&gt;Babel -->
<g id="edge1" class="edge">
<title>Org&#45;&gt;Babel</title>
<path fill="none" stroke="black" d="M54.4,-18C61.89,-18 70.18,-18 78.2,-18"/>
<polygon fill="black" stroke="black" points="78.1,-21.5 88.1,-18 78.1,-14.5 78.1,-21.5"/>
</g>
<!-- Graphviz -->
<g id="node3" class="node">
<title>Graphviz</title>
<path fill="none" stroke="black" d="M234.25,-36C234.25,-36 192,-36 192,-36 186,-36 180,-30 180,-24 180,-24 180,-12 180,-12 180,-6 186,0 192,0 192,0 234.25,0 234.25,0 240.25,0 246.25,-6 246.25,-12 246.25,-12 246.25,-24 246.25,-24 246.25,-30 240.25,-36 234.25,-36"/>
<text xml:space="preserve" text-anchor="middle" x="213.12" y="-12.95" font-family="Times,serif" font-size="14.00">Graphviz</text>
</g>
<!-- Babel&#45;&gt;Graphviz -->
<g id="edge2" class="edge">
<title>Babel&#45;&gt;Graphviz</title>
<path fill="none" stroke="black" d="M144.47,-18C151.94,-18 160.26,-18 168.45,-18"/>
<polygon fill="black" stroke="black" points="168.32,-21.5 178.32,-18 168.32,-14.5 168.32,-21.5"/>
</g>
</g>
</svg>
