<svg class="typst-doc" viewBox="0 0 30.426599999999997 13.413" width="30.426599999999997pt" height="13.413pt" xmlns="http://www.w3.org/2000/svg" xmlns:xlink="http://www.w3.org/1999/xlink" xmlns:h5="http://www.w3.org/1999/xhtml">
    <g>
        <g class="typst-text" transform="matrix(1 0 0 -1 0 8.806000000000001)">
            <use xlink:href="#g412BE4733055ECD1EB34158889261D94" x="0" y="0" fill="#eef3ff" fill-rule="nonzero"/>
        </g>
        <g class="typst-text" transform="matrix(1 0 0 -1 5.389 13.005000000000003)">
            <use xlink:href="#g8E0B1E762C4C01D81A46C805C4ADC21" x="0" y="0" fill="#eef3ff" fill-rule="nonzero"/>
        </g>
        <g class="typst-text" transform="matrix(1 0 0 -1 9.6866 8.806000000000001)">
            <use xlink:href="#gC5C78C97DE04B1CBA408406422D8C2A2" x="0" y="0" fill="#eef3ff" fill-rule="nonzero"/>
        </g>
        <g class="typst-text" transform="matrix(1 0 0 -1 14.7356 8.806000000000001)">
            <use xlink:href="#g6FCEC7E1666BF9FA83C3A59D985F9BDA" x="0" y="0" fill="#eef3ff" fill-rule="nonzero"/>
        </g>
        <g class="typst-text" transform="matrix(1 0 0 -1 23.150599999999997 8.806000000000001)">
            <use xlink:href="#g412BE4733055ECD1EB34158889261D94" x="0" y="0" fill="#eef3ff" fill-rule="nonzero"/>
        </g>
    </g>
    <defs id="glyph">
        <symbol id="g412BE4733055ECD1EB34158889261D94" overflow="visible">
            <path d="M 0 0m 1.19 5.168 c 0.42500007 -2.414 0.52700007 -3.1790001 0.88400006 -5.168 h 0.799 c 2.2610002 3.6890001 3.638 6.0350003 4.097 6.7490005 h -1.2750001 c -0.8670001 -1.6830001 -1.8699999 -3.5700004 -2.958 -5.2530003 c -0.28900003 1.9380002 -0.3570001 2.295 -0.5610001 3.91 c -0.15300012 1.19 -0.799 1.2410002 -1.9720001 1.4280005 l -0.119 -1.0880003 c 0.57800007 0 1.003 -0.03399992 1.105 -0.57800007 Z "/>
        </symbol>
        <symbol id="g8E0B1E762C4C01D81A46C805C4ADC21" overflow="visible">
            <path d="M 0 0m 2.8832 6.9224 c 0.09520006 0.34000015 -0.204 0.66639996 -0.5303998 0.66639996 c -0.32640004 0 -0.70720005 -0.31279993 -0.7752001 -0.6528001 c -0.108799934 -0.31279993 0.204 -0.63919973 0.50320005 -0.63919973 c 0.3399999 0 0.73440003 0.31279993 0.8023999 0.62559986 Z m -1.0199999 -4.0392 c 0.36720002 1.4552 0.5712 2.2032 0.5712 2.3528001 c 0 0.13600016 -0.122400045 0.23120022 -0.28559995 0.23120022 c -0.4488001 0 -0.8160001 -0.122400284 -1.1832001 -0.21760035 l -0.13599998 -0.7343998 c 0.0952 0.040800095 0.6664 0.29920006 0.6664 0.06799984 c 0 -0.040800095 -0.14960003 -0.69359994 -0.78880006 -3.1416001 c -0.17680001 -0.6392 -0.2584 -1.0608 -0.2584 -1.2919999 c 0 -0.5576 1.496 0.21760002 1.6456 0.3264 l 0.14960003 0.7344 c -0.32639992 -0.16320002 -0.7207999 -0.35359997 -0.87039995 -0.32639998 c -0.06799996 0.013599992 0.16320002 0.7072 0.48960006 1.9991999 Z "/>
        </symbol>
        <symbol id="gC5C78C97DE04B1CBA408406422D8C2A2" overflow="visible">
            <path d="M 0 0m 4.76 6.681 c -0.03399992 -0.016999722 -0.3909998 -0.10199976 -1.717 -0.08500004 l 0.47600007 2.2100005 l -1.19 -0.4420004 c -0.1190002 -0.5949998 -0.2550001 -1.1729999 -0.37400007 -1.7680001 h -0.9860001 c -0.051 -0.23799992 -0.153 -0.71399975 -0.17000002 -0.73099995 h 0.98600006 c -0.357 -1.5809999 -0.57800007 -2.55 -0.663 -2.907 c -0.35700005 -1.5300001 -0.5440001 -2.4650002 -0.5440001 -2.788 c 0 -0.595 0.7990001 -0.25500003 1.105 -0.15300001 c 0.42499995 0.15300001 0.816 0.37400004 0.9690001 0.47600004 l 0.18700004 0.952 c -0.54400015 -0.27199996 -0.90100014 -0.408 -1.0370002 -0.408 c -0.11899996 0 0.13600004 0.816 0.44200015 2.091 c 0.32299995 1.309 0.52699995 2.2270002 0.6459999 2.7540002 l 1.6660001 -0.03399992 Z "/>
        </symbol>
        <symbol id="g6FCEC7E1666BF9FA83C3A59D985F9BDA" overflow="visible">
            <path d="M 0 0m 7.5310006 3.1790001 c 0.4249997 1.9210002 -0.5270004 3.5190003 -2.6520004 3.5190003 c -1.037 0 -1.938 -0.30600023 -2.72 -0.9180002 c -0.7650001 -0.5949998 -1.2580001 -1.3769999 -1.4790001 -2.329 c -0.47600007 -2.006 0.78200006 -3.5870001 2.7370002 -3.5870001 c 0.98600006 0 1.7849998 0.20400001 2.5159998 0.748 c 0.79900026 0.59499997 1.3770003 1.496 1.5980005 2.5670002 Z m -1.0710001 0.102 c -0.34000015 -1.513 -1.4620004 -2.482 -2.8050003 -2.482 c -1.4450002 0 -2.244 1.2410002 -1.9210001 2.499 c 0.153 0.714 0.5100001 1.3090003 1.071 1.7850001 c 0.5610001 0.4760003 1.207 0.7140002 1.904 0.7140002 c 1.4960003 0 2.0400004 -1.2070003 1.7510004 -2.5160003 Z "/>
        </symbol>
    </defs>
</svg>
