<svg class="typst-doc" viewBox="0 0 9.911000000000001 10.607999999999999" width="9.911000000000001pt" height="10.607999999999999pt" xmlns="http://www.w3.org/2000/svg" xmlns:xlink="http://www.w3.org/1999/xlink" xmlns:h5="http://www.w3.org/1999/xhtml">
    <g>
        <g class="typst-text" transform="matrix(1 0 0 -1 0 10.607999999999999)">
            <use xlink:href="#gFD76E96A3DD22D654C87CED9F0809958" x="0" y="0" fill="#eef3ff" fill-rule="nonzero"/>
        </g>
    </g>
    <defs id="glyph">
        <symbol id="gFD76E96A3DD22D654C87CED9F0809958" overflow="visible">
            <path d="M 0 0m 9.316001 10.591001 c -1.3770003 -0.06799984 -2.3120008 -0.06799984 -3.2300005 -0.06799984 c -1.717 0.033999443 -2.8220003 0.06799984 -3.3490002 0.08500004 v -0.20400047 c 0 -0.30599976 -0.05100012 -0.71399975 -0.15300012 -1.2410002 c -0.47600007 -2.3289995 -0.73100007 -3.553 -0.748 -3.6549997 c -0.612 -2.8560002 -0.93500006 -4.3690004 -0.96900004 -4.5220003 c -0.08499998 -0.35700005 -0.204 -0.68000007 -0.357 -0.98600006 h 1.5470002 v 0.25500003 c 0 0.52700007 0.08500004 1.2240001 0.25499988 2.091 c 0.2550001 1.2409999 0.4250002 2.159 0.54400015 2.7200003 c 0.408 0.016999722 0.8499999 0.03399992 1.3430002 0.03399992 c 0.5609999 0 1.19 -0.017000198 1.8699999 -0.05100012 c 0.5100002 -0.03399992 0.8670001 -0.08500004 1.0540004 -0.13600016 l 0.32299995 1.4110003 c -0.2550001 -0.10200024 -0.57800007 -0.17000008 -1.0030003 -0.204 c -0.408 -0.017000198 -1.5809999 -0.03399992 -3.3660002 -0.03399992 l 0.714 3.4680004 h 3.6550004 c 0.45899963 0 0.697 -0.10200024 0.697 -0.32299995 c 0 -0.06800079 -0.017000198 -0.13600063 -0.034000397 -0.22100067 h 0.8500004 c 0.08500004 0.5609999 0.20399952 1.0880003 0.35700035 1.5810003 Z "/>
        </symbol>
    </defs>
</svg>
