<svg class="typst-doc" viewBox="0 0 47.722777777777786 13.141000000000002" width="47.722777777777786pt" height="13.141000000000002pt" xmlns="http://www.w3.org/2000/svg" xmlns:xlink="http://www.w3.org/1999/xlink" xmlns:h5="http://www.w3.org/1999/xhtml">
    <g>
        <g class="typst-group">
            <g>
                <g class="typst-text" transform="matrix(1 0 0 -1 0 9.503)">
                    <use xlink:href="#g8D77740ACEA68CC79CC179C029EC1B1A" x="0" y="0" fill="#eef3ff" fill-rule="nonzero"/>
                </g>
                <g class="typst-text" transform="matrix(1 0 0 -1 4.182 9.503)">
                    <use xlink:href="#g866645EE34B17C173269265EA54D62EF" x="0" y="0" fill="#eef3ff" fill-rule="nonzero"/>
                </g>
                <g class="typst-text" transform="matrix(1 0 0 -1 10.262333333333334 9.503)">
                    <use xlink:href="#gB4FA4DD0BEB4C1C0CAEF9A4EC86D8CC3" x="0" y="0" fill="#eef3ff" fill-rule="nonzero"/>
                </g>
                <g class="typst-text" transform="matrix(1 0 0 -1 22.311555555555557 9.503)">
                    <use xlink:href="#gE00C76C953179EF8994016CE911351EE" x="0" y="0" fill="#eef3ff" fill-rule="nonzero"/>
                </g>
                <g class="typst-text" transform="matrix(1 0 0 -1 39.51177777777778 9.503)">
                    <use xlink:href="#gA6CEA98106928C1D5888AFF2F1387B05" x="0" y="0" fill="#eef3ff" fill-rule="nonzero"/>
                </g>
            </g>
        </g>
    </g>
    <defs id="glyph">
        <symbol id="g8D77740ACEA68CC79CC179C029EC1B1A" overflow="visible">
            <path d="M 0 0m 3.604 8.653001 c 0.1190002 0.42499924 -0.25499988 0.8329992 -0.66299987 0.8329992 c -0.408 0 -0.88400006 -0.3909998 -0.9690001 -0.816 c -0.13600004 -0.3909998 0.2550001 -0.7989998 0.62899995 -0.7989998 c 0.4250002 0 0.9180002 0.3909998 1.003 0.78200054 Z m -1.2749999 -5.0490007 c 0.45899987 1.8190002 0.714 2.7540002 0.714 2.9410005 c 0 0.1699996 -0.15300012 0.28900003 -0.3570001 0.28900003 c -0.5610001 0 -1.02 -0.15300035 -1.4790001 -0.2720003 l -0.16999996 -0.91799974 c 0.11899996 0.05099964 0.83300006 0.3739996 0.83300006 0.08499956 c 0 -0.05099964 -0.18700004 -0.8669996 -0.98600006 -3.927 c -0.22100002 -0.799 -0.323 -1.326 -0.323 -1.615 c 0 -0.697 1.8700001 0.272 2.057 0.40800002 l 0.18700004 0.9180001 c -0.408 -0.20400012 -0.901 -0.44200003 -1.0879999 -0.4080001 c -0.08500004 0.01700008 0.204 0.88400006 0.6120001 2.499 Z "/>
        </symbol>
        <symbol id="g866645EE34B17C173269265EA54D62EF" overflow="visible">
            <path d="M 0 0m 2.0740001 1.139 h -1.1220001 v -1.139 h 0.47600007 c 0 -0.799 -0.23800004 -1.241 -0.697 -1.3260001 v -0.595 c 0.901 0.22100008 1.343 0.88400006 1.343 2.0230002 Z "/>
        </symbol>
        <symbol id="gB4FA4DD0BEB4C1C0CAEF9A4EC86D8CC3" overflow="visible">
            <path d="M 0 0m 6.5280004 8.653001 c 0.11899996 0.3909998 -0.2210002 0.8499994 -0.6290002 0.8499994 c -0.50999975 0 -1.0029998 -0.5100002 -1.0029998 -0.98600006 c 0 -0.3569994 0.28900003 -0.6459999 0.6459999 -0.6459999 c 0.4250002 0 0.9180002 0.37400055 1.0030003 0.78200054 Z m -1.8190002 -1.9040003 c -0.17000008 -1.0200005 -0.47599983 -2.584 -0.93499994 -4.7090006 c -0.52699995 -2.5160003 -0.697 -3.3490002 -0.901 -4.0460005 c -0.13599992 -0.47600007 -0.51 -0.78200006 -0.93500006 -0.7650001 c -0.595 0.01699996 -0.714 0.47600007 -1.003 0.816 l -0.28900003 -1.326 c 0.408 -0.13600016 0.612 -0.3570001 1.139 -0.3570001 c 0.799 0 1.4620001 0.27200007 1.819 0.9350002 c 0.52699995 0.98599994 1.02 3.6720002 1.2580004 4.743 c 0.57800007 2.7370002 0.93499994 4.318 1.0709996 4.7090006 Z "/>
        </symbol>
        <symbol id="gE00C76C953179EF8994016CE911351EE" overflow="visible">
            <path d="M 0 0m 9.962033 3.8250003 c -0.6393919 -0.27254796 -7.374713 -2.6962268 -7.752033 -2.8220003 c -0.459 -0.153 -1.02 -0.374 -1.4449999 -0.425 l 0.5950001 -1.411 c 0.255 0.18700004 0.5727705 0.56531644 1.615 0.9520001 c 5.401086 2.0038753 8.329768 3.1459298 8.738 3.2980003 v 0.91799974 c -0.11899948 0.017000198 -2.941 1.0710001 -8.415 3.2130003 c -0.918 0.35699987 -1.513 0.7989998 -1.802 1.1730003 l -0.697 -1.394 c 0.42500007 -0.05100012 0.87364066 -0.19691133 1.309 -0.40800047 c 0.53664565 -0.2601962 7.314184 -2.8828282 7.8540335 -3.0939999 Z "/>
        </symbol>
        <symbol id="gA6CEA98106928C1D5888AFF2F1387B05" overflow="visible">
            <path d="M 0 0m 7.6330004 1.3770001 c -0.5609999 -0.28900003 -0.901 -0.42500007 -1.02 -0.42500007 h -0.03399992 c -0.017000198 0.01700002 -0.03399992 0.051 -0.03399992 0.13600004 c 0 0.16999996 0.15299988 0.918 0.4419999 2.2270002 c 0.1869998 0.7650001 0.27199984 1.3939998 0.27199984 1.8700001 c 0 1.224 -0.54400015 1.6659999 -1.6490002 1.6659999 c -0.5949998 0 -1.19 -0.13600016 -1.819 -0.4250002 c -0.39100003 -0.1869998 -0.68000007 -0.35699987 -0.901 -0.5439997 l 0.17000008 0.612 c 0 0.1869998 -0.18700004 0.30599976 -0.39100003 0.30599976 h -0.05100012 c -0.37399983 -0.016999722 -0.867 -0.11899996 -1.479 -0.28900003 c -0.01699996 -0.11899996 -0.01699996 -0.22099972 -0.01699996 -0.32299995 c 0 -0.32299995 0.06799996 -0.49300003 0.204 -0.49300003 h 0.051 c 0.18700004 0.06800032 0.306 0.10200024 0.39100003 0.10200024 c 0.051 0 0.08499992 -0.017000198 0.102 -0.03399992 c -0.595 -2.7710004 -1.0370001 -4.7090006 -1.309 -5.7800007 h 1.1730001 c 0.357 1.751 0.7140001 3.4510002 1.054 5.0830007 c 0.799 0.5949998 1.598 0.901 2.414 0.901 h 0.05100012 c 0.6290002 -0.017000198 0.93499994 -0.408 0.93499994 -1.2070003 c 0 -0.34000015 -0.06799984 -0.8499999 -0.22099972 -1.53 c -0.11899996 -0.47600007 -0.2210002 -0.95200014 -0.34000015 -1.4280002 c -0.1869998 -0.765 -0.27199984 -1.309 -0.27199984 -1.598 c 0 -0.187 0.03399992 -0.28900003 0.10199976 -0.28900003 h 0.10200024 c 0.23799992 0 0.5439997 0.051000006 0.91799974 0.15300001 c 0.4250002 0.136 0.74800014 0.28900003 0.96900034 0.459 Z "/>
        </symbol>
    </defs>
</svg>
