<svg class="typst-doc" viewBox="0 0 24.534777777777776 10.744" width="24.534777777777776pt" height="10.744pt" xmlns="http://www.w3.org/2000/svg" xmlns:xlink="http://www.w3.org/1999/xlink" xmlns:h5="http://www.w3.org/1999/xhtml">
    <g>
        <g class="typst-text" transform="matrix(1 0 0 -1 0 9.129)">
            <use xlink:href="#g6FCEC7E1666BF9FA83C3A59D985F9BDA" x="0" y="0" fill="#eef3ff" fill-rule="nonzero"/>
        </g>
        <g class="typst-text" transform="matrix(1 0 0 -1 12.192777777777778 9.129)">
            <use xlink:href="#g73602E992866B9E2CD58686BCD9A805B" x="0" y="0" fill="#eef3ff" fill-rule="nonzero"/>
        </g>
    </g>
    <defs id="glyph">
        <symbol id="g6FCEC7E1666BF9FA83C3A59D985F9BDA" overflow="visible">
            <path d="M 0 0m 7.5310006 3.1790001 c 0.4249997 1.9210002 -0.5270004 3.5190003 -2.6520004 3.5190003 c -1.037 0 -1.938 -0.30600023 -2.72 -0.9180002 c -0.7650001 -0.5949998 -1.2580001 -1.3769999 -1.4790001 -2.329 c -0.47600007 -2.006 0.78200006 -3.5870001 2.7370002 -3.5870001 c 0.98600006 0 1.7849998 0.20400001 2.5159998 0.748 c 0.79900026 0.59499997 1.3770003 1.496 1.5980005 2.5670002 Z m -1.0710001 0.102 c -0.34000015 -1.513 -1.4620004 -2.482 -2.8050003 -2.482 c -1.4450002 0 -2.244 1.2410002 -1.9210001 2.499 c 0.153 0.714 0.5100001 1.3090003 1.071 1.7850001 c 0.5610001 0.4760003 1.207 0.7140002 1.904 0.7140002 c 1.4960003 0 2.0400004 -1.2070003 1.7510004 -2.5160003 Z "/>
        </symbol>
        <symbol id="g73602E992866B9E2CD58686BCD9A805B" overflow="visible">
            <path d="M 0 0m 5.61 4.2833695 l -2.669 -0.016369343 c -1.0370002 0.017000198 -1.7510002 0.08500004 -2.176 0.204 v -1.411 c 0.425 0.102 1.1560001 0.15299988 2.193 0.17000008 h 2.652 v -2.6860003 c -0.016999722 -1.02 -0.06799984 -1.7340001 -0.1869998 -2.1590002 h 1.428 c -0.11899996 0.42500007 -0.17000008 0.88400006 -0.1869998 1.394 v 3.4510002 h 2.6859999 c 1.0200005 -0.017000198 1.7340002 -0.06800008 2.1590004 -0.18700004 v 1.428 c -0.4250002 -0.11899996 -0.8839998 -0.17000008 -1.394 -0.1869998 h -3.451631 l -0.016369343 2.6690001 c 0.017000198 1.0369997 0.08500004 1.7509999 0.204 2.176 h -1.4109998 c 0.10199976 -0.4250002 0.15299988 -1.1560001 0.1699996 -2.1930003 Z "/>
        </symbol>
    </defs>
</svg>
