<svg class="typst-doc" viewBox="0 0 79.33333333333334 15.096" width="79.33333333333334pt" height="15.096pt" xmlns="http://www.w3.org/2000/svg" xmlns:xlink="http://www.w3.org/1999/xlink" xmlns:h5="http://www.w3.org/1999/xhtml">
    <g>
        <g class="typst-group">
            <g>
                <g class="typst-text" transform="matrix(1 0 0 -1 0 11.441)">
                    <use xlink:href="#gE277375A9758030C419F02CCD0D8A5B5" x="0" y="0" fill="#d8dee9" fill-rule="nonzero"/>
                </g>
                <g class="typst-text" transform="matrix(1 0 0 -1 4.4030000000000005 11.441)">
                    <use xlink:href="#gE288649F1995DA65F31C1F3524CB9910" x="0" y="0" fill="#d8dee9" fill-rule="nonzero"/>
                </g>
                <g class="typst-text" transform="matrix(1 0 0 -1 15.793 11.441)">
                    <use xlink:href="#g412BE4733055ECD1EB34158889261D94" x="0" y="0" fill="#d8dee9" fill-rule="nonzero"/>
                </g>
                <g class="typst-text" transform="matrix(1 0 0 -1 23.069 11.441)">
                    <use xlink:href="#g866645EE34B17C173269265EA54D62EF" x="0" y="0" fill="#d8dee9" fill-rule="nonzero"/>
                </g>
                <g class="typst-text" transform="matrix(1 0 0 -1 29.149333333333335 11.441)">
                    <use xlink:href="#g412BE4733055ECD1EB34158889261D94" x="0" y="0" fill="#d8dee9" fill-rule="nonzero"/>
                </g>
                <g class="typst-text" transform="matrix(1 0 0 -1 36.425333333333334 11.441)">
                    <use xlink:href="#gE4DE72FBC7B9DF0638D63B8646BD530B" x="0" y="0" fill="#d8dee9" fill-rule="nonzero"/>
                </g>
                <g class="typst-text" transform="matrix(1 0 0 -1 42.18833333333333 11.441)">
                    <use xlink:href="#gE288649F1995DA65F31C1F3524CB9910" x="0" y="0" fill="#d8dee9" fill-rule="nonzero"/>
                </g>
                <g class="typst-text" transform="matrix(1 0 0 -1 53.578333333333326 11.441)">
                    <use xlink:href="#gF14BC44FB4E07A7A950098B9D4A7E189" x="0" y="0" fill="#d8dee9" fill-rule="nonzero"/>
                </g>
                <g class="typst-text" transform="matrix(1 0 0 -1 62.809333333333335 11.441)">
                    <use xlink:href="#g9230CA1249366C7C11F98DF1DC2448C4" x="0" y="0" fill="#d8dee9" fill-rule="nonzero"/>
                </g>
                <g class="typst-text" transform="matrix(1 0 0 -1 70.23833333333333 11.441)">
                    <use xlink:href="#gE21AC5D2603EADCC5503D7AEB9D13904" x="0" y="0" fill="#d8dee9" fill-rule="nonzero"/>
                </g>
            </g>
        </g>
    </g>
    <defs id="glyph">
        <symbol id="gE277375A9758030C419F02CCD0D8A5B5" overflow="visible">
            <path d="M 0 0m 3.7400002 9.979 c 0 0.23800087 -0.23800015 0.2890005 -0.42499995 0.2890005 c -0.30600023 -0.017000198 -0.79900026 -0.10200024 -1.4620003 -0.2890005 l -0.102 -0.901 c 0.01700008 0.051000595 0.6800002 0.20400047 0.73100007 0.20400047 c 0.08500004 0 0.11899996 -0.05099964 0.11899996 -0.13599968 c 0 -0.22100067 -0.11899996 -0.8330002 -0.35699987 -1.8360004 c -0.3570001 -1.5300002 -0.73100007 -3.0090003 -1.1050001 -4.471 c -0.28900003 -1.1900002 -0.646 -2.8730001 -0.476 -2.9410002 c 0.49299997 -0.17000002 1.5810001 0.40800002 1.9549999 0.646 l 0.2210002 0.98600006 c -0.595 -0.28900003 -0.9350002 -0.42500007 -1.0370002 -0.42500007 c -0.06799996 0 1.9210002 8.33 1.9380002 8.874001 Z "/>
        </symbol>
        <symbol id="gE288649F1995DA65F31C1F3524CB9910" overflow="visible">
            <path d="M 0 0m 6.6640005 0 c 0.59250975 0.004980469 1.0041785 0.0070390627 1.3025088 0.0070390627 c 0.72025824 0 0.7798581 -0.012019532 1.1284575 -0.024039064 c 0.4760008 -0.017 0.9350004 -0.068 1.3600006 -0.187 v 1.496 c -0.5609999 -0.153 -0.9350004 -0.22099996 -3.7910004 -0.22099996 c -1.8190002 0 -3.4680002 -0.051 -4.471 -0.051 l 6.8680005 7.956001 c 0.57800007 0.57800007 1.1730003 1.3260002 1.5469999 1.5299997 l -1.0030003 0.9350004 c -0.20399952 -0.408 -0.47599983 -0.76500034 -0.7989998 -1.1730003 c -0.32299995 -0.408 -5.2190003 -6.0520005 -7.9220004 -9.214001 c 0 0 -0.00424999 -0.0042499304 -0.00424999 -0.13812494 c 0 -0.13387501 0.00424999 -0.39737505 0.02124995 -0.9158751 h 0.11900002 c 0.423921 -0.010774415 0.77647173 -0.014725586 1.0993721 -0.014725586 c 0.88219047 0 1.5430489 0.029451173 2.8332229 0.029451173 c 0.47224808 0 1.0288486 -0.0039511714 1.7114387 -0.014725586 Z "/>
        </symbol>
        <symbol id="g412BE4733055ECD1EB34158889261D94" overflow="visible">
            <path d="M 0 0m 1.19 5.168 c 0.42500007 -2.414 0.52700007 -3.1790001 0.88400006 -5.168 h 0.799 c 2.2610002 3.6890001 3.638 6.0350003 4.097 6.7490005 h -1.2750001 c -0.8670001 -1.6830001 -1.8699999 -3.5700004 -2.958 -5.2530003 c -0.28900003 1.9380002 -0.3570001 2.295 -0.5610001 3.91 c -0.15300012 1.19 -0.799 1.2410002 -1.9720001 1.4280005 l -0.119 -1.0880003 c 0.57800007 0 1.003 -0.03399992 1.105 -0.57800007 Z "/>
        </symbol>
        <symbol id="g866645EE34B17C173269265EA54D62EF" overflow="visible">
            <path d="M 0 0m 2.0740001 1.139 h -1.1220001 v -1.139 h 0.47600007 c 0 -0.799 -0.23800004 -1.241 -0.697 -1.3260001 v -0.595 c 0.901 0.22100008 1.343 0.88400006 1.343 2.0230002 Z "/>
        </symbol>
        <symbol id="gE4DE72FBC7B9DF0638D63B8646BD530B" overflow="visible">
            <path d="M 0 0m 5.406 6.7660003 c -0.17000008 0.08500004 -0.35699987 0.11899996 -0.57800007 0.11899996 c -0.9009998 -0.016999722 -1.5639999 -0.4249997 -1.9889998 -1.2579999 l 0.25499988 1.1220002 h -1.122 c 0.01699996 -0.408 -0.37400007 -2.0400004 -0.39100003 -2.1930003 c -0.561 -2.7540002 -0.73100007 -3.4510002 -1.003 -4.556 h 1.1560001 c 0.08500004 0.44200003 0.16999996 0.88400006 0.255 1.309 c 0.18700004 0.9180002 0.3570001 1.802 0.47600007 2.3630002 c 0.17000008 0.5610001 0.4419999 1.1730001 0.8670001 1.615 c 0.25499988 0.2720003 0.62899995 0.49300003 1.0029998 0.57800007 c 0.30600023 0.06799984 0.6290002 0.05100012 0.8500004 -0.13600016 Z "/>
        </symbol>
        <symbol id="gF14BC44FB4E07A7A950098B9D4A7E189" overflow="visible">
            <path d="M 0 0m 7.5480003 6.7320004 l -0.204 -1.1220002 c -0.49300003 0.8500004 -1.2579999 1.2240005 -2.159 1.2240005 c -2.2440002 0 -3.7400002 -1.3430004 -4.1310005 -3.3320005 c -0.204 -1.003 -0.03399992 -2.0570002 0.6630001 -2.805 c 0.4929999 -0.51 1.156 -0.78200006 2.006 -0.78200006 c 1.122 0 2.057 0.374 2.7029998 1.1730001 c -0.23799992 -1.1220001 -0.408 -1.7680001 -0.49300003 -2.091 c -0.28899956 -1.0710001 -1.3259997 -1.7510002 -2.465 -1.7510002 c -1.003 0 -1.8700001 0.37400007 -2.601 1.139 l -0.28900003 -1.3260001 c 1.122 -0.42499995 1.6490002 -0.714 2.805 -0.714 c 1.6489999 0 2.805 0.612 3.3490002 1.9040002 c 0.4590001 1.105 0.697 2.5670002 0.95200014 3.7740002 c 0.4419999 2.0910003 0.79900026 3.6720002 1.0540004 4.7090006 Z m -0.697 -3.706 c -0.4250002 -1.3090001 -1.5469999 -2.176 -2.788 -2.176 c -1.4450002 0 -2.176 1.275 -1.9550002 2.499 c 0.2550001 1.4449999 1.3260002 2.5839999 3.009 2.5839999 c 1.309 0 1.8870001 -0.96899986 1.8870001 -2.074 Z "/>
        </symbol>
        <symbol id="g9230CA1249366C7C11F98DF1DC2448C4" overflow="visible">
            <path d="M 0 0m 6.8510003 5.2530003 c 0 0.9180002 -0.697 1.5469999 -2.091 1.5469999 c -1.938 0 -3.6550002 -1.2750001 -4.08 -3.281 c -0.23800004 -0.98600006 -0.08500004 -2.0570002 0.62899995 -2.7710004 c 0.52700007 -0.527 1.2580001 -0.782 2.1590002 -0.782 c 0.86699986 0 1.819 0.272 2.5670002 0.782 l -0.30600023 0.952 c -0.5949998 -0.49300003 -1.309 -0.799 -1.9889998 -0.799 c -1.3770001 0 -2.0570002 0.595 -2.0570002 1.7 c 0 0.2550001 0.03400004 0.54400015 0.11899996 0.85000014 c 0.4590001 -0.15300012 1.0200002 -0.22099996 1.6490002 -0.22099996 c 1.2919998 0 3.4 0.45899987 3.4 2.023 Z m -1.0710001 0 c 0 -0.816 -1.4959998 -1.1389999 -2.482 -1.1389999 c -0.37399983 0 -0.7479999 0.03399992 -1.1730001 0.15299988 c 0.49300003 0.8670001 1.2410002 1.428 2.2440004 1.5640001 c 0.47599983 0.05100012 1.4109998 0.10199976 1.4109998 -0.57800007 Z "/>
        </symbol>
        <symbol id="gE21AC5D2603EADCC5503D7AEB9D13904" overflow="visible">
            <path d="M 0 0m 8.466001 5.287 c 0.08500004 2.9410005 -0.6459999 5.4060006 -3.9270005 5.338001 c -2.958 -0.06800079 -3.876 -2.618001 -3.876 -5.389001 c 0 -3.672 1.292 -5.321 3.8930001 -5.321 c 2.4820004 0 3.791 1.6660001 3.9100003 5.372 Z m -1.2580004 -0.03399992 c -0.016999722 -2.9410002 -0.91799974 -4.25 -2.6690001 -4.267 c -2.346 0 -2.6859999 2.125 -2.652 4.25 c 0.01699996 3.0430002 0.901 4.267 2.618 4.352 c 2.499 0.119000435 2.7370005 -2.091 2.703 -4.335 Z "/>
        </symbol>
    </defs>
</svg>
